<?xml version="1.0" encoding="utf-8"?>
<?xml-stylesheet type="text/xsl" href="rss1.xsl"?>
<rss version="2.0" xmlns:atom="http://www.w3.org/2005/Atom" xmlns:content="http://purl.org/rss/1.0/modules/content/" xmlns:dc="http://purl.org/dc/elements/1.1/" xmlns:media="http://search.yahoo.com/mrss/">
<channel>
 <title>Getty</title>
 <link>http://www.gettyimg.com/</link>
 <atom:link href="http://www.gettyimg.com/" rel="self" type="application/rss+xml" />

 
                <item>
                <title><![CDATA[【Cinema Center】SERIES - Kiya and the Kimoja Heroes - Season 1 - 1080p Disney+ WEB-DL DDP5.1 H.264-LAZY]]></title>
                <link><![CDATA[https://sharemania.us/threads/kiya-and-the-kimoja-heroes-season-1-1080p-disney-web-dl-ddp5-1-h-264-lazy.235938/]]></link>
                <description><![CDATA[<article>
<blockquote class="messageText SelectQuoteContainer ugc baseHtml">
Kiya and the Kimoja Heroes:<img src="http:////imgbin.broadcasthe.net/i/dOs6XJ9_8wDrgwQe90p5P.png" class="bbCodeImage LbImage" alt="[​IMG]" data-url="http:////imgbin.broadcasthe.net/i/dOs6XJ9_8wDrgwQe90p5P.png" style=""> <br>
<br>
<div class="bbCodeBlock bbCodeQuote">
<aside>
<blockquote class="quoteContainer"><div class="quote"><i><b>Synopsis:</b></i><br>
A 7-year-old African girl loves ballet and martial arts and when she and her two best friends put on their magical crystal headbands they become superheroes ready to defend their community. The series will incorporate the philosophy of Ubuntu, the belief in a universal bond of sharing that connects all humanity.</div><div class="quoteExpand">Click to expand...</div></blockquote>
</aside>
</div>
<div class="ToggleTriggerAnchor bbCodeSpoilerContainer">
<button type="button" class="button bbCodeSpoilerButton ToggleTrigger Tooltip JsOnly" data-target="> .SpoilerTarget"><span>Spoiler: <span class="SpoilerTitle">MediaInfo</span></span></button>
<div class="SpoilerTarget bbCodeSpoilerText">General<br>
Unique ID : 166619695257345416187777007784799192175 (0x7D59C93A0DC1C81145AD692053B7446F)<br>
Complete name : Kiya.and.the.Kimoja.Heroes.S01E01E02.Kiya.and.the.Kite.Monster.-.Cosmic.Catastrophe.1080p.DSNP.WEB-DL.DDP5.1.H.264-LAZY.mkv<br>
Format : Matroska<br>
Format version : Version 4<br>
File size : 1.25 GiB<br>
Duration : 24 min 15 s<br>
Overall bit rate mode : Variable<br>
Overall bit rate : 7 349 kb/s<br>
Frame rate : 23.976 FPS<br>
Encoded date : 2024-01-15 19:25:09 UTC<br>
Writing application : mkvmerge v82.0 ('I'm The President') 64-bit<br>
Writing library : libebml v1.4.5 + libmatroska v1.7.1<br>
<br>
Video<br>
ID : 1<br>
Format : AVC<br>
Format/Info : Advanced Video Codec<br>
Format profile : High@L4<br>
Format settings : CABAC / 4 Ref Frames<br>
Format settings, CABAC : Yes<br>
Format settings, Reference frames : 4 frames<br>
Codec ID : V_MPEG4/ISO/AVC<br>
Duration : 24 min 15 s<br>
Bit rate mode : Variable<br>
Bit rate : 7 088 kb/s<br>
Maximum bit rate : 12.7 Mb/s<br>
Width : 1 920 pixels<br>
Height : 1 080 pixels<br>
Display aspect ratio : 16:9<br>
Frame rate mode : Constant<br>
Frame rate : 23.976 (24000/1001) FPS<br>
Color space : YUV<br>
Chroma subsampling : 4:2:0<br>
Bit depth : 8 bits<br>
Scan type : Progressive<br>
Bits/(Pixel*Frame) : 0.143<br>
Stream size : 1.20 GiB (96%)<br>
Default : Yes<br>
Forced : No<br>
Color range : Limited<br>
Color primaries : BT.709<br>
Transfer characteristics : BT.709<br>
Matrix coefficients : BT.709<br>
<br>
Audio<br>
ID : 2<br>
Format : E-AC-3<br>
Format/Info : Enhanced AC-3<br>
Commercial name : Dolby Digital Plus<br>
Codec ID : A_EAC3<br>
Duration : 24 min 15 s<br>
Bit rate mode : Constant<br>
Bit rate : 256 kb/s<br>
Channel(s) : 6 channels<br>
Channel layout : L R C LFE Ls Rs<br>
Sampling rate : 48.0 kHz<br>
Frame rate : 31.250 FPS (1536 SPF)<br>
Compression mode : Lossy<br>
Stream size : 44.4 MiB (3%)<br>
Language : English<br>
Service kind : Complete Main<br>
Default : Yes<br>
Forced : No<br>
<br>
Text #1<br>
ID : 3<br>
Format : UTF-8<br>
Codec ID : S_TEXT/UTF8<br>
Codec ID/Info : UTF-8 Plain Text<br>
Duration : 23 min 41 s<br>
Bit rate : 87 b/s<br>
Frame rate : 0.323 FPS<br>
Count of elements : 459<br>
Stream size : 15.2 KiB (0%)<br>
Title : SDH<br>
Language : English<br>
Default : No<br>
Forced : No<br>
<br>
Text #2<br>
ID : 4<br>
Format : UTF-8<br>
Codec ID : S_TEXT/UTF8<br>
Codec ID/Info : UTF-8 Plain Text<br>
Duration : 23 min 11 s<br>
Bit rate : 65 b/s<br>
Frame rate : 0.213 FPS<br>
Count of elements : 296<br>
Stream size : 11.2 KiB (0%)<br>
Language : Danish<br>
Default : No<br>
Forced : No<br>
<br>
Text #3<br>
ID : 5<br>
Format : UTF-8<br>
Codec ID : S_TEXT/UTF8<br>
Codec ID/Info : UTF-8 Plain Text<br>
Duration : 23 min 11 s<br>
Bit rate : 75 b/s<br>
Frame rate : 0.230 FPS<br>
Count of elements : 320<br>
Stream size : 12.8 KiB (0%)<br>
Language : German<br>
Default : No<br>
Forced : No<br>
<br>
Text #4<br>
ID : 6<br>
Format : UTF-8<br>
Codec ID : S_TEXT/UTF8<br>
Codec ID/Info : UTF-8 Plain Text<br>
Duration : 23 min 40 s<br>
Bit rate : 75 b/s<br>
Frame rate : 0.335 FPS<br>
Count of elements : 476<br>
Stream size : 13.1 KiB (0%)<br>
Title : Latin American<br>
Language : Spanish<br>
Default : No<br>
Forced : No<br>
<br>
Text #5<br>
ID : 7<br>
Format : UTF-8<br>
Codec ID : S_TEXT/UTF8<br>
Codec ID/Info : UTF-8 Plain Text<br>
Duration : 23 min 11 s<br>
Bit rate : 72 b/s<br>
Frame rate : 0.231 FPS<br>
Count of elements : 322<br>
Stream size : 12.3 KiB (0%)<br>
Title : European<br>
Language : Spanish<br>
Default : No<br>
Forced : No<br>
<br>
Text #6<br>
ID : 8<br>
Format : UTF-8<br>
Codec ID : S_TEXT/UTF8<br>
Codec ID/Info : UTF-8 Plain Text<br>
Duration : 23 min 40 s<br>
Bit rate : 88 b/s<br>
Frame rate : 0.332 FPS<br>
Count of elements : 472<br>
Stream size : 15.3 KiB (0%)<br>
Title : European (SDH)<br>
Language : Spanish<br>
Default : No<br>
Forced : No<br>
<br>
Text #7<br>
ID : 9<br>
Format : UTF-8<br>
Codec ID : S_TEXT/UTF8<br>
Codec ID/Info : UTF-8 Plain Text<br>
Duration : 23 min 11 s<br>
Bit rate : 67 b/s<br>
Frame rate : 0.223 FPS<br>
Count of elements : 310<br>
Stream size : 11.5 KiB (0%)<br>
Language : Finnish<br>
Default : No<br>
Forced : No<br>
<br>
Text #8<br>
ID : 10<br>
Format : UTF-8<br>
Codec ID : S_TEXT/UTF8<br>
Codec ID/Info : UTF-8 Plain Text<br>
Duration : 23 min 58 s<br>
Bit rate : 73 b/s<br>
Frame rate : 0.275 FPS<br>
Count of elements : 395<br>
Stream size : 12.8 KiB (0%)<br>
Language : French<br>
Default : No<br>
Forced : No<br>
<br>
Text #9<br>
ID : 11<br>
Format : UTF-8<br>
Codec ID : S_TEXT/UTF8<br>
Codec ID/Info : UTF-8 Plain Text<br>
Duration : 23 min 50 s<br>
Bit rate : 86 b/s<br>
Frame rate : 0.314 FPS<br>
Count of elements : 450<br>
Stream size : 15.2 KiB (0%)<br>
Title : SDH<br>
Language : French<br>
Default : No<br>
Forced : No<br>
<br>
Text #10<br>
ID : 12<br>
Format : UTF-8<br>
Codec ID : S_TEXT/UTF8<br>
Codec ID/Info : UTF-8 Plain Text<br>
Duration : 23 min 11 s<br>
Bit rate : 64 b/s<br>
Frame rate : 0.231 FPS<br>
Count of elements : 321<br>
Stream size : 11.0 KiB (0%)<br>
Language : Italian<br>
Default : No<br>
Forced : No<br>
<br>
Text #11<br>
ID : 13<br>
Format : UTF-8<br>
Codec ID : S_TEXT/UTF8<br>
Codec ID/Info : UTF-8 Plain Text<br>
Duration : 23 min 54 s<br>
Bit rate : 69 b/s<br>
Frame rate : 0.268 FPS<br>
Count of elements : 385<br>
Stream size : 12.2 KiB (0%)<br>
Language : Japanese<br>
Default : No<br>
Forced : No<br>
<br>
Text #12<br>
ID : 14<br>
Format : UTF-8<br>
Codec ID : S_TEXT/UTF8<br>
Codec ID/Info : UTF-8 Plain Text<br>
Duration : 23 min 58 s<br>
Bit rate : 87 b/s<br>
Frame rate : 0.309 FPS<br>
Count of elements : 444<br>
Stream size : 15.4 KiB (0%)<br>
Language : Korean<br>
Default : No<br>
Forced : No<br>
<br>
Text #13<br>
ID : 15<br>
Format : UTF-8<br>
Codec ID : S_TEXT/UTF8<br>
Codec ID/Info : UTF-8 Plain Text<br>
Duration : 23 min 41 s<br>
Bit rate : 69 b/s<br>
Frame rate : 0.305 FPS<br>
Count of elements : 434<br>
Stream size : 12.0 KiB (0%)<br>
Language : Dutch<br>
Default : No<br>
Forced : No<br>
<br>
Text #14<br>
ID : 16<br>
Format : UTF-8<br>
Codec ID : S_TEXT/UTF8<br>
Codec ID/Info : UTF-8 Plain Text<br>
Duration : 23 min 41 s<br>
Bit rate : 71 b/s<br>
Frame rate : 0.313 FPS<br>
Count of elements : 445<br>
Stream size : 12.3 KiB (0%)<br>
Language : Norwegian<br>
Default : No<br>
Forced : No<br>
<br>
Text #15<br>
ID : 17<br>
Format : UTF-8<br>
Codec ID : S_TEXT/UTF8<br>
Codec ID/Info : UTF-8 Plain Text<br>
Duration : 23 min 11 s<br>
Bit rate : 65 b/s<br>
Frame rate : 0.242 FPS<br>
Count of elements : 337<br>
Stream size : 11.1 KiB (0%)<br>
Language : Polish<br>
Default : No<br>
Forced : No<br>
<br>
Text #16<br>
ID : 18<br>
Format : UTF-8<br>
Codec ID : S_TEXT/UTF8<br>
Codec ID/Info : UTF-8 Plain Text<br>
Duration : 23 min 40 s<br>
Bit rate : 82 b/s<br>
Frame rate : 0.308 FPS<br>
Count of elements : 437<br>
Stream size : 14.4 KiB (0%)<br>
Title : Brazilian<br>
Language : Portuguese<br>
Default : No<br>
Forced : No<br>
<br>
Text #17<br>
ID : 19<br>
Format : UTF-8<br>
Codec ID : S_TEXT/UTF8<br>
Codec ID/Info : UTF-8 Plain Text<br>
Duration : 23 min 11 s<br>
Bit rate : 62 b/s<br>
Frame rate : 0.229 FPS<br>
Count of elements : 318<br>
Stream size : 10.7 KiB (0%)<br>
Title : European<br>
Language : Portuguese<br>
Default : No<br>
Forced : No<br>
<br>
Text #18<br>
ID : 20<br>
Format : UTF-8<br>
Codec ID : S_TEXT/UTF8<br>
Codec ID/Info : UTF-8 Plain Text<br>
Duration : 23 min 11 s<br>
Bit rate : 75 b/s<br>
Frame rate : 0.218 FPS<br>
Count of elements : 303<br>
Stream size : 12.8 KiB (0%)<br>
Language : Romanian<br>
Default : No<br>
Forced : No<br>
<br>
Text #19<br>
ID : 21<br>
Format : UTF-8<br>
Codec ID : S_TEXT/UTF8<br>
Codec ID/Info : UTF-8 Plain Text<br>
Duration : 23 min 11 s<br>
Bit rate : 71 b/s<br>
Frame rate : 0.229 FPS<br>
Count of elements : 318<br>
Stream size : 12.1 KiB (0%)<br>
Language : Swedish<br>
Default : No<br>
Forced : No<br>
<br>
Text #20<br>
ID : 22<br>
Format : UTF-8<br>
Codec ID : S_TEXT/UTF8<br>
Codec ID/Info : UTF-8 Plain Text<br>
Duration : 23 min 11 s<br>
Bit rate : 73 b/s<br>
Frame rate : 0.231 FPS<br>
Count of elements : 321<br>
Stream size : 12.5 KiB (0%)<br>
Language : Turkish<br>
Default : No<br>
Forced : No<br>
<br>
Text #21<br>
ID : 23<br>
Format : UTF-8<br>
Codec ID : S_TEXT/UTF8<br>
Codec ID/Info : UTF-8 Plain Text<br>
Duration : 23 min 58 s<br>
Bit rate : 72 b/s<br>
Frame rate : 0.310 FPS<br>
Count of elements : 446<br>
Stream size : 12.8 KiB (0%)<br>
Title : Traditional, Hong Kong<br>
Language : Chinese<br>
Default : No<br>
Forced : No<br>
<br>
Text #22<br>
ID : 24<br>
Format : UTF-8<br>
Codec ID : S_TEXT/UTF8<br>
Codec ID/Info : UTF-8 Plain Text<br>
Duration : 23 min 58 s<br>
Bit rate : 68 b/s<br>
Frame rate : 0.310 FPS<br>
Count of elements : 446<br>
Stream size : 12.1 KiB (0%)<br>
Title : Simplified<br>
Language : Chinese<br>
Default : No<br>
Forced : No<br>
<br>
Text #23<br>
ID : 25<br>
Format : UTF-8<br>
Codec ID : S_TEXT/UTF8<br>
Codec ID/Info : UTF-8 Plain Text<br>
Duration : 23 min 58 s<br>
Bit rate : 66 b/s<br>
Frame rate : 0.309 FPS<br>
Count of elements : 445<br>
Stream size : 11.7 KiB (0%)<br>
Title : Traditional<br>
Language : Chinese<br>
Default : No<br>
Forced : No<br>
<br>
Menu<br>
00:00:01.043 : en:Intro<br>
00:00:44.044 : en:Scene 1<br>
00:12:17.738 : en:Scene 2<br>
00:23:48.929 : en:Credits</div>
</div><br>
Screenshots:<br>
<img src="https://i.imgur.com/L8GFSrN.jpg" class="bbCodeImage LbImage" alt="[​IMG]" data-url="https://i.imgur.com/L8GFSrN.jpg" style=""> <br>
<div class="bbCodeBlock bbCodeVfcHH HiddenContent">
<div class="attribution type">Hidden Content:</div>
<blockquote>You must either reply or click 'Like' to see the hidden information contained here.</blockquote>
</div>
<div class="messageTextEndMarker">&nbsp;</div>
</blockquote>
</article>]]></description>
                <author><![CDATA[LazyRips]]></author>
                </item>

                
                <item>
                <title><![CDATA[【Requests】[REQ AUD] - E-mails I can’t send fwd]]></title>
                <link><![CDATA[https://sharemania.us/threads/e-mails-i-can%E2%80%99t-send-fwd.235937/]]></link>
                <description><![CDATA[<article>
<blockquote class="messageText SelectQuoteContainer ugc baseHtml">
Hi!<br>
Anyone has these files?<br>
<a href="https://sharemania.us/threads/sabrina-carpenter-emails-i-cant-send-japan-edition-cd-16bit-44-1khz.224344/" class="internalLink">https://sharemania.us/threads/sabri...t-send-japan-edition-cd-16bit-44-1khz.224344/</a>
<div class="messageTextEndMarker">&nbsp;</div>
</blockquote>
</article>]]></description>
                <author><![CDATA[da5vi]]></author>
                </item>

                </channel></rss>